<svg width="238" height="93" xmlns="http://www.w3.org/2000/svg">
 <!-- Created with Method Draw - http://github.com/duopixel/Method-Draw/ -->

 <g>
  <title>background</title>
  <rect x="-1" y="-1" width="240" height="95" id="canvas_background" fill="#ffffff"/>
  <g id="canvasGrid" display="none">
   <rect id="svg_1" width="100%" height="100%" x="0" y="0" stroke-width="0" fill="url(#gridpattern)"/>
  </g>
 </g>
 <g>
  <title>Layer 1</title>
  <style type="text/css">.st0{fill:#FFED00;}
	.st1{fill:#F6F6F3;}
	.st2{fill:#373636;}</style>
  <g stroke="null" id="svg_38">
   <g stroke="null" id="svg_6" transform="matrix(1.0024432438126543,0,0,1.0024432438126543,0,-0.00004768372877972946) "/>
   <g stroke="null" id="svg_5" transform="matrix(1.0024432438126543,0,0,1.0024432438126543,0,-0.00004768372877972946) ">
    <g stroke="null" id="svg_8">
     <g stroke="null" id="svg_9">
      <polyline stroke="null" class="st0" points="51.2999267578125,0.00006103515625 82.5999755859375,92.10003662109375 0,92.10003662109375 0,0.00006103515625 51.2999267578125,0.00006103515625 " id="svg_10"/>
      <polygon stroke="null" class="st1" points="82.5999755859375,92.10003662109375 51.2999267578125,0.00006103515625 236.7999267578125,0.00006103515625 236.7999267578125,92.10003662109375 82.5999755859375,92.10003662109375 " id="svg_11"/>
      <g stroke="null" id="svg_12">
       <g stroke="null" id="svg_13">
        <g stroke="null" id="svg_14">
         <path stroke="null" class="st2" d="m108.4999,23.40004l-6.7,19.4l-4,0l-6.7,-19.4l3.6,0l5.1,14.7l5.1,-14.7l3.6,0z" id="svg_15"/>
         <path stroke="null" class="st2" d="m114.5999,21.50004l0.4,0l0,21l-3.4,0l0,-20.7l3,-0.3z" id="svg_16"/>
         <path stroke="null" class="st2" d="m130.9999,42.80004c-1.1,0 -2.3,-0.3 -3.4,-1.6c-0.6,0.4 -1.1,0.8 -1.7,1.1c-0.6,0.3 -1.3,0.5 -2.3,0.5c-1,0 -2.3,-0.2 -3.2,-0.9c-1,-0.7 -1.7,-1.9 -1.7,-3.9c0,-1.3 0.3,-2.4 1.1,-3.1c0.8,-0.7 2.1,-1.1 4.1,-1.1c0.8,0 1.8,0 3.1,0.1l0,-0.8c0,-1 -0.3,-1.8 -0.9,-2.2c-0.5,-0.4 -1.3,-0.6 -2.1,-0.6c-1.3,0 -2.8,0.5 -4,1l-0.8,-3c1.6,-0.8 3.6,-1.3 5.5,-1.3c1.5,0 2.9,0.3 3.9,1.1c1,0.8 1.7,2 1.7,3.8l0,5.6c0,0.7 0.2,1.2 0.6,1.5c0.4,0.3 0.9,0.6 1.6,0.7l-1.5,3.1zm-4.1,-6.4c-1.6,0 -2.8,0 -3.6,0.2c-0.8,0.2 -1.3,0.6 -1.3,1.5c0,1.2 0.9,1.9 2.1,1.9c0.4,0 1.1,-0.1 1.7,-0.5c0.6,-0.4 1.1,-1.1 1.1,-2.2l0,-0.9z" id="svg_17"/>
         <path stroke="null" class="st2" d="m146.6999,42.80004c-1.1,0 -2.3,-0.3 -3.4,-1.6c-0.6,0.4 -1.1,0.8 -1.7,1.1c-0.6,0.3 -1.3,0.5 -2.3,0.5c-1,0 -2.3,-0.2 -3.2,-0.9c-1,-0.7 -1.7,-1.9 -1.7,-3.9c0,-1.3 0.3,-2.4 1.1,-3.1c0.8,-0.7 2.1,-1.1 4.1,-1.1c0.8,0 1.8,0 3.1,0.1l0,-0.8c0,-1 -0.3,-1.8 -0.9,-2.2c-0.5,-0.4 -1.3,-0.6 -2.1,-0.6c-1.3,0 -2.8,0.5 -4,1l-0.8,-3c1.6,-0.8 3.6,-1.3 5.5,-1.3c1.5,0 2.9,0.3 3.9,1.1c1,0.8 1.7,2 1.7,3.8l0,5.6c0,0.7 0.2,1.2 0.6,1.5c0.4,0.3 0.9,0.6 1.6,0.7l-1.5,3.1zm-4,-6.4c-1.6,0 -2.8,0 -3.6,0.2c-0.8,0.2 -1.3,0.6 -1.3,1.5c0,1.2 0.9,1.9 2.1,1.9c0.4,0 1.1,-0.1 1.7,-0.5c0.6,-0.4 1.1,-1.1 1.1,-2.2l0,-0.9z" id="svg_18"/>
         <path stroke="null" class="st2" d="m151.0999,27.40004l2.9,0l0.3,1.1c1.2,-0.9 2.6,-1.3 4,-1.3c1.4,0 2.8,0.6 3.7,1.8c1.3,-1.1 3,-1.8 4.6,-1.8c1.3,0 2.4,0.4 3.3,1.3c0.9,0.9 1.4,2.2 1.4,4.1l0,10l-3.4,0l0,-9.1c0,-1.1 -0.3,-1.8 -0.8,-2.3c-0.5,-0.5 -1.1,-0.7 -1.8,-0.7c-0.9,0 -1.7,0.3 -2.5,0.8c0.1,0.4 0.1,0.8 0.1,1.2l0,10.1l-3.4,0l0,-9.1c0,-1.1 -0.3,-1.8 -0.7,-2.3c-0.4,-0.5 -1.1,-0.7 -1.7,-0.7c-0.8,0 -1.7,0.3 -2.5,0.9l0,11.2l-3.4,0l0,-15.2l-0.1,0z" id="svg_19"/>
         <path stroke="null" class="st2" d="m174.2999,38.60004l0.1,-0.1c0.4,0.2 1,0.5 1.6,0.7c0.6,0.2 1.4,0.4 2.1,0.4c0.6,0 1.2,-0.1 1.7,-0.4c0.5,-0.3 0.8,-0.7 0.8,-1.4c0,-1 -0.7,-1.4 -1.6,-1.8c-0.5,-0.2 -1,-0.3 -1.5,-0.5c-1.1,-0.3 -2.1,-0.9 -2.7,-1.9c-0.3,-0.5 -0.5,-1.2 -0.5,-2c0,-1.6 0.6,-2.7 1.6,-3.4c1,-0.7 2.2,-1 3.6,-1c1.2,0 2.5,0.2 3.3,0.6l0,3l-0.2,0.1c-0.8,-0.4 -1.6,-0.6 -2.6,-0.6c-0.6,0 -1.2,0.1 -1.7,0.3c-0.4,0.2 -0.7,0.6 -0.7,1c0,0.7 0.7,1.1 1.6,1.4l1.5,0.5c1.1,0.4 2,1 2.7,2.1c0.3,0.5 0.5,1.2 0.5,2.1c0,1.7 -0.7,3 -1.8,3.8c-1.1,0.8 -2.5,1.2 -4,1.2c-1.5,0 -2.8,-0.4 -3.9,-1l0,-3.1l0.1,0z" id="svg_20"/>
         <path stroke="null" class="st2" d="m198.2999,38.60004l0,3.3c-1.3,0.7 -3,0.9 -4.3,0.9c-2.1,0 -4,-0.7 -5.4,-1.9c-1.4,-1.3 -2.3,-3.3 -2.3,-5.9c0,-2.5 0.8,-4.5 2.1,-5.8c1.3,-1.3 3,-2 4.6,-2c0.5,0 1.3,0.1 2.2,0.4c0.9,0.3 1.9,0.9 2.6,1.9c0.7,1 1.2,2.5 1.2,4.6l0,2.3l-9.1,0c0.3,1.2 0.9,2 1.7,2.6c0.8,0.5 1.8,0.7 2.7,0.7c1.3,0 2.6,-0.4 3.8,-1l0.2,-0.1zm-2.3,-5.1c-0.1,-1.1 -0.5,-1.9 -1,-2.4c-0.5,-0.5 -1.2,-0.7 -1.8,-0.7c-0.7,0 -1.4,0.2 -2,0.7c-0.6,0.5 -1,1.3 -1.3,2.4l6.1,0z" id="svg_21"/>
        </g>
       </g>
       <g stroke="null" id="svg_22">
        <path stroke="null" class="st2" d="m91.9999,62.70004c0,-2.2 0.8,-4.2 2.1,-5.6c1.3,-1.4 3.2,-2.3 5.4,-2.3c2.2,0 4,0.9 5.3,2.3c1.3,1.4 2,3.3 2,5.5c0,2.2 -0.8,4.2 -2.1,5.6c-1.3,1.4 -3.2,2.3 -5.4,2.3c-2.2,0 -4,-0.9 -5.3,-2.2c-1.3,-1.4 -2,-3.4 -2,-5.6zm3.4,-0.1c0,1.3 0.3,2.4 1,3.2c0.7,0.8 1.7,1.4 3,1.4c1.3,0 2.2,-0.5 2.9,-1.3c0.6,-0.8 0.9,-1.9 0.9,-3.2c0,-1.3 -0.3,-2.4 -0.9,-3.3c-0.7,-0.8 -1.6,-1.3 -3,-1.3c-1.3,0 -2.3,0.5 -2.9,1.3c-0.6,0.8 -1,1.9 -1,3.2z" id="svg_23"/>
        <path stroke="null" class="st2" d="m113.3999,70.20004l-5.2,-15l3.7,0l3.4,9.8l0.1,0l3.4,-9.8l3.7,0l-5.2,15l-3.9,0z" id="svg_24"/>
        <path stroke="null" class="st2" d="m135.9999,66.30004l0,3.3c-1.3,0.7 -3,0.9 -4.3,0.9c-2.1,0 -4,-0.7 -5.4,-1.9c-1.4,-1.3 -2.3,-3.3 -2.3,-5.9c0,-2.5 0.8,-4.5 2.1,-5.8c1.3,-1.3 3,-2 4.6,-2c0.5,0 1.3,0.1 2.2,0.4c0.9,0.3 1.9,0.9 2.6,1.9c0.7,1 1.2,2.5 1.2,4.6l0,2.3l-9.1,0c0.3,1.2 0.9,2 1.7,2.6c0.8,0.5 1.8,0.7 2.7,0.7c1.3,0 2.6,-0.4 3.8,-1l0.2,-0.1zm-2.3,-5c-0.1,-1.1 -0.5,-1.9 -1,-2.4c-0.5,-0.5 -1.2,-0.7 -1.8,-0.7c-0.7,0 -1.4,0.2 -2,0.7c-0.6,0.5 -1,1.3 -1.3,2.4l6.1,0z" id="svg_25"/>
        <path stroke="null" class="st2" d="m149.1999,58.90004c-0.9,-0.5 -1.7,-0.8 -2.5,-0.8c-1.1,0 -2.1,0.4 -3,1.1l0,10.9l-3.4,0l0,-15l2.9,0l0.3,1.2c1,-0.9 2.3,-1.5 3.8,-1.5c0.4,0 1,0 1.5,0.1c0.6,0.1 1.1,0.2 1.5,0.5l-1.1,3.5z" id="svg_26"/>
        <path stroke="null" class="st2" d="m153.0999,49.50004l2.9,-0.3l0.5,0l0,7c1.3,-0.9 3,-1.3 4.6,-1.3c1.4,0 2.8,0.4 3.8,1.2c1,0.9 1.6,2.2 1.6,4.1l0,10l-3.3,0l0,-9c0,-1.1 -0.4,-1.9 -1,-2.4c-0.6,-0.5 -1.5,-0.7 -2.4,-0.7c-1.2,0 -2.3,0.3 -3.3,0.9l0,11.1l-3.4,0l0,-20.6z" id="svg_27"/>
        <path stroke="null" class="st2" d="m181.9999,66.30004l0,3.3c-1.3,0.7 -3,0.9 -4.3,0.9c-2.1,0 -4,-0.7 -5.4,-1.9c-1.4,-1.3 -2.3,-3.3 -2.3,-5.9c0,-2.5 0.8,-4.5 2.1,-5.8c1.3,-1.3 3,-2 4.6,-2c0.5,0 1.3,0.1 2.2,0.4c0.9,0.3 1.9,0.9 2.6,1.9c0.7,1 1.2,2.5 1.2,4.6l0,2.3l-9.1,0c0.3,1.2 0.9,2 1.7,2.6c0.8,0.5 1.8,0.7 2.7,0.7c1.3,0 2.6,-0.4 3.8,-1l0.2,-0.1zm-2.3,-5c-0.1,-1.1 -0.5,-1.9 -1,-2.4c-0.5,-0.5 -1.2,-0.7 -1.8,-0.7c-0.7,0 -1.4,0.2 -2,0.7c-0.6,0.5 -1,1.3 -1.3,2.4l6.1,0z" id="svg_28"/>
        <path stroke="null" class="st2" d="m185.9999,51.20004c0,-0.6 0.2,-1 0.6,-1.4c0.4,-0.4 0.9,-0.6 1.4,-0.6c0.6,0 1.1,0.2 1.4,0.6c0.3,0.4 0.6,0.8 0.6,1.4c0,0.6 -0.2,1.1 -0.6,1.4c-0.4,0.4 -0.9,0.6 -1.4,0.6c-0.6,0 -1.1,-0.2 -1.4,-0.6c-0.4,-0.3 -0.6,-0.8 -0.6,-1.4zm0.3,4l3.4,0l0,15l-3.4,0l0,-15z" id="svg_29"/>
        <path stroke="null" class="st2" d="m206.7999,70.20004l-2.6,0l-0.6,-1.1c-1.2,0.9 -2.4,1.4 -4,1.4c-2.2,0 -3.8,-0.9 -4.8,-2.2c-1.1,-1.3 -1.6,-3.1 -1.6,-5c0,-2.8 0.9,-4.9 2.3,-6.4c1.4,-1.4 3.4,-2.1 5.7,-2.1c0.7,0 1.4,0 2.2,0.1l0,-5.5l2.9,-0.3l0.5,0l0,21.1zm-3.3,-11.8c-0.9,-0.2 -1.7,-0.3 -2.4,-0.3c-1.3,0 -2.4,0.4 -3.1,1.2c-0.8,0.8 -1.2,1.9 -1.2,3.5c0,1.1 0.3,2.3 0.9,3.1c0.6,0.9 1.5,1.4 2.7,1.4c1,0 2.2,-0.4 3.1,-0.9l0,-8z" id="svg_30"/>
       </g>
      </g>
     </g>
     <g stroke="null" id="svg_31">
      <path stroke="null" class="st2" d="m51.4999,46.40004c-2,-1.6 -3,0 -4.3,-0.1c-1.1,-0.1 -2.1,-1.8 -2.9,-1.4c-1.6,0.8 0.6,3.7 1.6,4.3c0.9,0.5 2,1 2.2,1.1c1.3,0.6 1.8,1.5 2,2.9c0,0.3 0,1.1 -0.1,1.4c-0.6,2.5 -5,4.8 -7.5,3c-1.2,-0.8 -2.3,-1.9 -2.6,-3.7c-0.7,-3.3 -3,-5.7 -3.8,-8.9c-0.5,-1.9 -0.8,-4 -1.3,-6c-0.5,-2 -1,-4 -1.5,-5.9c-0.4,-1.7 -1.2,-4.3 -1.8,-5.8c-2.4,-6.3 -3.5,-5.8 -3.5,-5.8s0.9,1.7 4,17.1c0.1,0.6 1.3,7.4 2.1,9.6c0.3,0.8 0.8,2.5 1.2,3.2c1,2.2 3.7,5.5 3.8,8.5c0.1,1.7 0.3,3.2 0.3,4.5c0,0.4 0.2,1.9 0.4,2.6c0.7,1.8 5.9,7.7 11.5,7.7l0,-4.5c-5.5,0 -10.8,-3.1 -10.9,-3.4c-0.1,-0.1 0.3,-2.3 0.7,-3.2c0.7,-1.8 2.1,-3.5 4.5,-3.7c2.7,-0.2 4.3,0.6 5.7,0.6l0.2,-14.1z" id="svg_32"/>
      <path stroke="null" class="st2" d="m27.4999,30.20004c-0.2,3.4 -5.4,7.9 -7,10.9c-0.8,1.4 -1.8,3.9 -2,5.4c-0.7,4 0.2,6.5 1.2,8.8c1.7,4.1 -0.2,5.6 1.1,4.8c1.7,-1.4 1.4,-4.5 1.3,-6.5c-0.1,-1.6 -0.2,-3.4 0,-5.3c0.5,-3.6 2.6,-7.4 4.5,-10.1c2.1,-3.2 1.3,-6.5 0.9,-8" id="svg_33"/>
      <path stroke="null" class="st2" d="m28.4999,39.70004c0,0 0.6,2.7 -1.8,9.5c-6.1,17.9 5.6,19.5 8.9,23.7c0,0 1.3,-1.8 -4,-7.6c-1.9,-2.1 -3.7,-6.8 -2.2,-13.5c2.3,-9.7 -0.9,-12.1 -0.9,-12.1" id="svg_34"/>
      <path stroke="null" class="st2" d="m16.8999,28.00004c-0.3,-1.1 -0.4,-2 -0.3,-2.8c0.3,-4.2 4.1,-5.9 5,-6.5c0,0 1.7,-1.2 1.9,-2.4c0,0 1.8,4.4 -2.3,6.9c-1.9,1.3 -3.3,2.8 -4.3,4.8" id="svg_35"/>
      <path stroke="null" class="st2" d="m26.5999,24.00004c0.2,0.4 1.8,2.7 -4.7,8.1c-6.5,5.3 -4.4,9.1 -4.4,9.1s-6.9,-3.8 1,-10.5c7.9,-6.6 6.3,-8 6.3,-8s1.1,0 1.8,1.3" id="svg_36"/>
      <path stroke="null" class="st2" d="m34.9999,26.00004c1.1,0.1 1.8,3.6 4.4,4.4c1.9,0.6 3.9,0.3 4.4,1.4c-0.9,0.5 -0.2,2 0.7,1.7c0.6,-2 1,-9.9 -9.5,-7.5zm3.4,1.6c0.1,-0.2 0.2,0 0.5,-0.2c0.3,-0.3 0.6,-0.8 1.1,-0.9c0.4,-0.1 0.8,-0.1 1.2,0.1c0.2,0.1 0.1,0.6 -0.1,0.8c-0.3,0.3 -1.4,-0.2 -1.4,0.6c0,1.3 1.7,0 2.6,0c0.5,3 -4.6,2.1 -3.9,-0.4z" id="svg_37"/>
     </g>
    </g>
   </g>
  </g>
 </g>
</svg>