<?xml version="1.0" encoding="utf-8"?>
<!-- Generator: Adobe Illustrator 23.0.1, SVG Export Plug-In . SVG Version: 6.00 Build 0)  -->
<svg version="1.1" id="Layer_1" xmlns="http://www.w3.org/2000/svg" xmlns:xlink="http://www.w3.org/1999/xlink" x="0px" y="0px"
	 viewBox="0 0 580 77" style="enable-background:new 0 0 580 77;" xml:space="preserve">
<style type="text/css">
	.st0{fill:#42688B;}
	.st1{fill:#5E8AB4;}
	.st2{fill:#70BBF0;}
	.st3{fill:#252525;}
</style>
<g id="Calque_2">
	<g id="MobiDataLab_logo_web">
		<g id="LOGO_VECTO">
			<path class="st0" d="M0,1h22.7l8.8,34l8.7-34h22.7v55.9H48.7V14.3L37.8,56.9H25L14.1,14.3v42.6H0V1z"/>
			<path class="st0" d="M67.8,29c0-9.1,2.5-16.2,7.6-21.3S87.6,0,96.7,0c9.3,0,16.5,2.5,21.5,7.5c5,5,7.5,12,7.5,21
				c0,6.5-1.1,11.9-3.3,16.1c-2.1,4.1-5.5,7.5-9.5,9.8c-4.2,2.3-9.3,3.5-15.5,3.5c-6.2,0-11.4-1-15.7-3c-4.2-2.1-7.7-5.4-10-9.5
				C69.1,40.9,67.8,35.5,67.8,29z M85.1,29c0,5.6,1,9.7,3.1,12.2c2.1,2.5,5.3,3.8,8.6,3.7c3.7,0,6.6-1.2,8.6-3.6c2-2.4,3-6.7,3-13
				c0-5.3-1.1-9.1-3.2-11.5c-2.2-2.5-5.4-3.8-8.6-3.6c-3.2-0.1-6.3,1.2-8.4,3.7C86.1,19.3,85.1,23.3,85.1,29z"/>
			<path class="st0" d="M131.1,1h32.3c5.4,0,9.5,1.3,12.4,4c2.8,2.5,4.4,6.1,4.3,9.9c0.1,3.1-1,6.2-3.1,8.5c-1.6,1.7-3.7,3-6,3.7
				c4,1,7,2.6,8.9,5c1.9,2.5,2.9,5.7,2.8,8.9c0,2.7-0.6,5.4-2,7.8c-1.3,2.3-3.2,4.2-5.5,5.5c-2.1,1-4.3,1.6-6.6,1.8
				c-3.9,0.5-6.5,0.8-7.7,0.8h-29.8V1z M148.6,22.9h7.5c2.7,0,4.6-0.5,5.6-1.4c1.1-1,1.7-2.5,1.6-4c0.1-1.4-0.5-2.8-1.6-3.8
				c-1.1-0.9-2.9-1.4-5.5-1.4h-7.6L148.6,22.9z M148.6,44.9h8.8c3,0,5.1-0.5,6.3-1.6c1.2-1.1,1.9-2.7,1.8-4.3c0-1.5-0.6-3-1.8-4
				c-1.2-1-3.3-1.5-6.4-1.5h-8.8V44.9z"/>
			<path class="st0" d="M188.6,1h17.3v55.9h-17.3V1z"/>
			<path class="st1" d="M214.6,1h25.7c5.1,0,9.1,0.7,12.3,2.1c3,1.3,5.7,3.3,7.7,5.9c2.1,2.7,3.6,5.7,4.4,9
				c0.9,3.5,1.4,7.2,1.4,10.8c0,6-0.7,10.6-2,13.9c-1.3,3.1-3.2,6-5.7,8.3c-2.2,2.1-4.9,3.6-7.8,4.4c-3.3,1-6.8,1.5-10.3,1.5h-25.7
				V1z M231.9,13.6v30.5h4.2c3.6,0,6.2-0.4,7.7-1.2c1.6-0.9,2.9-2.4,3.6-4.2c0.9-2,1.3-5.2,1.3-9.7c0-5.9-1-10-2.9-12.2
				c-1.9-2.2-5.1-3.3-9.6-3.3L231.9,13.6z"/>
			<path class="st1" d="M302.2,47.6h-19.6l-2.7,9.2h-17.6l21-55.9h18.8l21,55.9H305L302.2,47.6z M298.7,35.6l-6.2-20.1l-6.1,20.1
				H298.7z"/>
			<path class="st1" d="M315.4,1h52.5v13.8h-17.6v42.1H333V14.8h-17.6V1z"/>
			<path class="st1" d="M400.9,47.6h-19.6l-2.7,9.2h-17.6l21-55.9h18.8l21,55.9h-18.1L400.9,47.6z M397.3,35.6l-6.2-20.1L385,35.6
				L397.3,35.6z"/>
			<path class="st2" d="M423.3,1h17.3v42.1h27v13.8h-44.3V1z"/>
			<path class="st2" d="M505.8,47.6h-19.6l-2.7,9.2h-17.6l21-55.9h18.8l21,55.9h-18.1L505.8,47.6z M502.3,35.6l-6.2-20.1L490,35.6
				L502.3,35.6z"/>
			<path class="st2" d="M528.3,1h32.3c5.4,0,9.5,1.3,12.4,4c2.8,2.5,4.4,6.1,4.3,9.9c0.1,3.1-1,6.2-3.1,8.5c-1.6,1.7-3.7,3-6,3.7
				c4,1,7,2.6,8.9,5c1.9,2.5,2.9,5.7,2.8,8.9c0,2.7-0.6,5.4-2,7.8c-1.3,2.3-3.2,4.2-5.5,5.5c-2.1,1-4.3,1.6-6.5,1.8
				c-3.9,0.5-6.5,0.8-7.7,0.8h-29.8V1z M545.8,22.9h7.5c2.7,0,4.6-0.5,5.6-1.4c1.1-1,1.7-2.5,1.6-4c0.1-1.4-0.5-2.8-1.6-3.8
				c-1-0.9-2.9-1.4-5.5-1.4h-7.6V22.9z M545.8,44.9h8.8c3,0,5.1-0.5,6.3-1.6c1.2-1.1,1.9-2.7,1.8-4.3c0-1.5-0.6-3-1.8-4
				c-1.2-1-3.3-1.5-6.3-1.5h-8.8L545.8,44.9z"/>
			<path class="st3" d="M0.5,74.5v-8.4h1.1v7.4h4.1v1L0.5,74.5z"/>
			<path class="st3" d="M14,73.8c-0.3,0.3-0.7,0.5-1.1,0.7c-0.4,0.1-0.7,0.2-1.1,0.2c-0.6,0-1.1-0.1-1.5-0.5
				c-0.3-0.3-0.5-0.8-0.5-1.3c0-0.3,0.1-0.6,0.2-0.8c0.1-0.2,0.3-0.4,0.5-0.6c0.2-0.1,0.5-0.3,0.7-0.3c0.3-0.1,0.5-0.1,0.8-0.2
				c0.6-0.1,1.2-0.2,1.8-0.3v-0.3c0-0.3-0.1-0.6-0.3-0.9c-0.3-0.3-0.7-0.4-1.2-0.3c-0.4,0-0.7,0.1-1.1,0.3c-0.3,0.2-0.4,0.6-0.5,0.9
				l-1-0.1c0.1-0.4,0.2-0.7,0.5-1c0.2-0.3,0.6-0.5,0.9-0.6c0.4-0.1,0.9-0.2,1.4-0.2c0.4,0,0.9,0,1.3,0.2c0.3,0.1,0.5,0.2,0.7,0.5
				c0.2,0.2,0.3,0.4,0.3,0.7c0.1,0.3,0.1,0.6,0.1,0.9V72c0,0.6,0,1.2,0.1,1.8c0,0.3,0.1,0.5,0.3,0.7h-1.1C14.1,74.3,14,74,14,73.8z
				 M13.9,71.5c-0.5,0.2-1.1,0.3-1.7,0.4c-0.3,0-0.6,0.1-0.9,0.2c-0.2,0.1-0.3,0.2-0.4,0.3c-0.1,0.1-0.2,0.3-0.1,0.5
				c0,0.3,0.1,0.5,0.3,0.7c0.3,0.2,0.6,0.3,0.9,0.3c0.3,0,0.7-0.1,1-0.3c0.3-0.2,0.5-0.4,0.7-0.7c0.1-0.3,0.2-0.7,0.2-1L13.9,71.5z"
				/>
			<path class="st3" d="M20.5,74.5h-1v-8.4h1v3c0.4-0.5,1-0.8,1.7-0.8c0.4,0,0.7,0.1,1.1,0.2c0.3,0.1,0.6,0.4,0.8,0.6
				c0.2,0.3,0.4,0.6,0.5,1c0.1,0.4,0.2,0.8,0.2,1.2c0.1,0.9-0.2,1.7-0.7,2.4c-0.5,0.5-1.1,0.9-1.8,0.9c-0.7,0-1.3-0.3-1.7-0.9
				L20.5,74.5z M20.5,71.4c0,0.5,0.1,1.1,0.3,1.6c0.3,0.5,0.8,0.8,1.3,0.8c0.5,0,0.9-0.2,1.2-0.6c0.6-1.1,0.6-2.4,0-3.5
				c-0.3-0.4-0.7-0.6-1.1-0.6c-0.5,0-0.9,0.2-1.2,0.6C20.6,70.2,20.4,70.8,20.5,71.4L20.5,71.4z"/>
			<path class="st3" d="M28.7,72.7l1-0.2c0,0.4,0.2,0.7,0.5,0.9c0.7,0.4,1.5,0.4,2.1,0c0.2-0.2,0.3-0.4,0.3-0.7
				c0-0.2-0.1-0.4-0.3-0.5c-0.3-0.2-0.7-0.3-1-0.3c-0.5-0.1-1.1-0.3-1.6-0.5c-0.3-0.1-0.5-0.3-0.7-0.6c-0.1-0.2-0.2-0.5-0.2-0.8
				c0-0.2,0.1-0.5,0.2-0.7c0.1-0.2,0.3-0.4,0.5-0.6c0.2-0.1,0.4-0.2,0.7-0.3c0.3-0.1,0.6-0.1,0.9-0.1c0.4,0,0.8,0.1,1.3,0.2
				c0.3,0.1,0.6,0.3,0.8,0.6c0.2,0.3,0.3,0.6,0.3,0.9l-1,0.1c0-0.3-0.2-0.5-0.4-0.7c-0.3-0.2-0.6-0.3-0.9-0.3c-0.4,0-0.7,0.1-1,0.2
				c-0.2,0.1-0.3,0.3-0.3,0.5c0,0.1,0,0.3,0.1,0.4c0.1,0.1,0.2,0.2,0.4,0.3c0.1,0,0.4,0.1,0.9,0.3c0.5,0.1,1,0.3,1.5,0.5
				c0.6,0.2,1,0.8,0.9,1.4c0,0.4-0.1,0.7-0.3,1c-0.2,0.3-0.5,0.6-0.9,0.7c-0.4,0.2-0.8,0.3-1.3,0.3c-0.6,0-1.3-0.1-1.8-0.5
				C29,73.8,28.7,73.3,28.7,72.7z"/>
			<path class="st3" d="M44.5,74.5v-5.3h-0.9v-0.8h0.9v-0.6c0-0.3,0-0.6,0.1-0.9c0.1-0.3,0.3-0.5,0.5-0.7c0.3-0.2,0.7-0.3,1-0.3
				c0.3,0,0.7,0,1,0.1L47,67c-0.2,0-0.4,0-0.6,0c-0.2,0-0.5,0-0.7,0.2c-0.2,0.2-0.2,0.5-0.2,0.7v0.6h1.2v0.8h-1.2v5.3L44.5,74.5z"/>
			<path class="st3" d="M50.2,71.5c-0.1-0.9,0.3-1.8,0.9-2.5c0.5-0.4,1.2-0.7,1.9-0.7c0.8,0,1.5,0.3,2,0.8c0.6,0.6,0.8,1.4,0.8,2.3
				c0,0.6-0.1,1.3-0.4,1.8c-0.2,0.4-0.6,0.8-1,1c-0.4,0.3-0.9,0.4-1.5,0.4c-0.7,0-1.5-0.3-2-0.8C50.4,73.2,50.1,72.3,50.2,71.5z
				 M51.2,71.5c0,0.6,0.1,1.2,0.5,1.7c0.6,0.7,1.7,0.8,2.4,0.2c0.1-0.1,0.1-0.1,0.2-0.2c0.4-0.5,0.6-1.1,0.5-1.8
				c0-0.6-0.1-1.2-0.5-1.7c-0.6-0.7-1.7-0.8-2.4-0.2c-0.1,0-0.1,0.1-0.2,0.2C51.4,70.2,51.2,70.9,51.2,71.5z"/>
			<path class="st3" d="M60.1,74.5v-6.1H61v0.9c0.2-0.3,0.4-0.6,0.7-0.8c0.2-0.1,0.4-0.2,0.7-0.2c0.4,0,0.7,0.1,1.1,0.3l-0.4,1
				c-0.2-0.1-0.5-0.2-0.8-0.2c-0.2,0-0.4,0.1-0.6,0.2c-0.2,0.1-0.3,0.3-0.4,0.6c-0.1,0.4-0.2,0.8-0.2,1.2v3.2L60.1,74.5z"/>
			<path class="st3" d="M73.3,76.8v-8.4h0.9v0.8c0.2-0.3,0.5-0.5,0.8-0.7c0.3-0.2,0.7-0.2,1-0.2c0.5,0,1,0.1,1.4,0.4
				c0.4,0.3,0.7,0.7,0.9,1.1c0.2,0.5,0.3,1.1,0.3,1.6c0,0.6-0.1,1.1-0.3,1.7c-0.2,0.5-0.6,0.9-1,1.1c-0.4,0.3-0.9,0.4-1.3,0.4
				c-0.3,0-0.6-0.1-0.9-0.2c-0.3-0.1-0.5-0.3-0.7-0.6v3L73.3,76.8z M74.3,71.5c0,0.6,0.1,1.2,0.5,1.7c0.3,0.4,0.7,0.6,1.2,0.6
				c0.5,0,0.9-0.2,1.2-0.6c0.6-1.1,0.6-2.4,0-3.5c-0.3-0.4-0.7-0.6-1.1-0.6c-0.5,0-0.9,0.2-1.2,0.6C74.4,70.3,74.2,70.9,74.3,71.5z"
				/>
			<path class="st3" d="M82.9,74.5v-6.1h0.9v0.9c0.2-0.3,0.4-0.6,0.7-0.8c0.2-0.1,0.4-0.2,0.7-0.2c0.4,0,0.7,0.1,1.1,0.3l-0.4,1
				c-0.2-0.1-0.5-0.2-0.8-0.2c-0.2,0-0.4,0.1-0.6,0.2c-0.2,0.1-0.3,0.3-0.4,0.6c-0.1,0.4-0.2,0.8-0.2,1.2v3.2L82.9,74.5z"/>
			<path class="st3" d="M89.4,71.5c-0.1-0.9,0.3-1.8,0.9-2.5c0.5-0.5,1.2-0.7,1.9-0.7c0.8,0,1.5,0.3,2,0.8c0.6,0.6,0.8,1.4,0.8,2.3
				c0,0.6-0.1,1.3-0.3,1.8c-0.2,0.4-0.6,0.8-1,1c-0.4,0.3-1,0.4-1.5,0.4c-0.8,0-1.5-0.3-2.1-0.8C89.6,73.1,89.4,72.3,89.4,71.5z
				 M90.4,71.5c0,0.6,0.1,1.2,0.5,1.7c0.3,0.4,0.8,0.6,1.3,0.6c0.5,0,1-0.2,1.3-0.6c0.4-0.5,0.6-1.1,0.5-1.8c0-0.6-0.1-1.2-0.5-1.7
				c-0.3-0.4-0.8-0.6-1.3-0.6c-0.5,0-1,0.2-1.3,0.6C90.6,70.2,90.4,70.9,90.4,71.5L90.4,71.5z"/>
			<path class="st3" d="M101.6,73.6l0.2,0.9c-0.3,0.1-0.5,0.1-0.8,0.1c-0.3,0-0.6,0-0.9-0.2c-0.2-0.1-0.3-0.3-0.4-0.5
				c-0.1-0.4-0.2-0.8-0.1-1.2v-3.5h-0.8v-0.8h0.8v-1.5l1-0.6v2.1h1v0.8h-1v3.6c0,0.2,0,0.4,0.1,0.6c0,0.1,0.1,0.2,0.2,0.2
				c0.1,0.1,0.2,0.1,0.3,0.1C101.3,73.6,101.4,73.6,101.6,73.6z"/>
			<path class="st3" d="M105.3,71.5c-0.1-0.9,0.3-1.8,0.9-2.5c0.5-0.5,1.2-0.7,1.9-0.7c0.8,0,1.5,0.3,2,0.8c0.6,0.6,0.8,1.4,0.8,2.3
				c0,0.6-0.1,1.3-0.4,1.8c-0.2,0.4-0.6,0.8-1,1c-0.4,0.3-0.9,0.4-1.5,0.4c-0.8,0-1.5-0.3-2.1-0.8C105.5,73.1,105.2,72.3,105.3,71.5
				z M106.3,71.5c0,0.6,0.1,1.2,0.5,1.7c0.6,0.7,1.7,0.8,2.4,0.2c0.1-0.1,0.1-0.1,0.2-0.2c0.4-0.5,0.6-1.1,0.5-1.8
				c0-0.6-0.1-1.2-0.5-1.7c-0.6-0.7-1.7-0.8-2.4-0.2c-0.1,0-0.1,0.1-0.2,0.2C106.5,70.2,106.3,70.9,106.3,71.5z"/>
			<path class="st3" d="M117.4,73.6l0.1,0.9c-0.3,0.1-0.5,0.1-0.8,0.1c-0.3,0-0.6,0-0.9-0.2c-0.2-0.1-0.3-0.3-0.4-0.5
				c-0.1-0.4-0.2-0.8-0.1-1.2v-3.5h-0.8v-0.8h0.8v-1.5l1-0.6v2.1h1v0.8h-1v3.6c0,0.2,0,0.4,0.1,0.6c0,0.1,0.1,0.2,0.2,0.2
				c0.1,0.1,0.2,0.1,0.4,0.1C117.1,73.6,117.3,73.6,117.4,73.6z"/>
			<path class="st3" d="M121.4,76.8l-0.1-1c0.2,0.1,0.4,0.1,0.6,0.1c0.2,0,0.4,0,0.6-0.1c0.1-0.1,0.3-0.2,0.3-0.3
				c0.1-0.2,0.2-0.5,0.3-0.8l0.1-0.3l-2.3-6.1h1.1l1.3,3.6c0.2,0.4,0.3,0.9,0.4,1.4c0.1-0.5,0.3-0.9,0.4-1.4l1.3-3.5h1l-2.3,6.2
				c-0.2,0.5-0.4,0.9-0.6,1.4c-0.1,0.3-0.4,0.5-0.6,0.7c-0.2,0.2-0.5,0.2-0.8,0.2C121.9,77,121.6,76.9,121.4,76.8z"/>
			<path class="st3" d="M130.4,76.8v-8.4h0.9v0.8c0.2-0.3,0.4-0.5,0.8-0.7c0.3-0.2,0.7-0.2,1-0.2c0.5,0,1,0.1,1.4,0.4
				c0.4,0.3,0.7,0.7,0.9,1.1c0.4,1.1,0.4,2.2,0,3.3c-0.4,0.9-1.3,1.5-2.3,1.5c-0.3,0-0.6-0.1-0.9-0.2c-0.3-0.1-0.5-0.3-0.7-0.6v3
				L130.4,76.8z M131.3,71.5c0,0.6,0.1,1.2,0.5,1.7c0.3,0.4,0.7,0.6,1.1,0.6c0.5,0,0.9-0.2,1.2-0.6c0.4-0.5,0.5-1.2,0.5-1.8
				c0-0.6-0.1-1.2-0.5-1.7c-0.3-0.4-0.7-0.6-1.1-0.6c-0.5,0-0.9,0.2-1.2,0.6C131.4,70.2,131.3,70.9,131.3,71.5L131.3,71.5z"/>
			<path class="st3" d="M139.9,67.3v-1.2h1v1.2H139.9z M139.9,74.5v-6.1h1v6.1H139.9z"/>
			<path class="st3" d="M145.6,74.5v-6.1h0.9v0.9c0.4-0.7,1.2-1,1.9-1c0.3,0,0.7,0.1,1,0.2c0.3,0.1,0.5,0.3,0.7,0.5
				c0.2,0.2,0.3,0.5,0.3,0.8c0,0.3,0.1,0.7,0.1,1v3.7h-1v-3.7c0-0.3,0-0.6-0.1-0.9c-0.1-0.2-0.2-0.4-0.4-0.5
				c-0.2-0.1-0.5-0.2-0.7-0.2c-0.4,0-0.8,0.1-1.1,0.4c-0.4,0.4-0.5,1-0.5,1.6v3.3L145.6,74.5z"/>
			<path class="st3" d="M154.9,75l1,0.2c0,0.3,0.1,0.5,0.4,0.7c0.3,0.2,0.7,0.3,1.1,0.3c0.4,0,0.8-0.1,1.1-0.3
				c0.3-0.2,0.4-0.5,0.5-0.8c0.1-0.4,0.1-0.9,0.1-1.3c-0.4,0.5-1,0.8-1.7,0.8c-0.8,0-1.5-0.3-1.9-0.9c-0.5-0.6-0.7-1.4-0.7-2.2
				c0-0.5,0.1-1.1,0.3-1.6c0.2-0.5,0.5-0.9,0.9-1.1c0.4-0.3,0.9-0.4,1.4-0.4c0.7,0,1.3,0.3,1.8,0.9v-0.7h0.9v5.3
				c0,0.7-0.1,1.4-0.3,2c-0.2,0.4-0.5,0.7-0.9,0.9c-0.5,0.2-1,0.4-1.5,0.3c-0.6,0-1.2-0.1-1.8-0.5C155.1,76.1,154.9,75.6,154.9,75z
				 M155.8,71.4c-0.1,0.6,0.1,1.2,0.5,1.7c0.3,0.4,0.7,0.6,1.2,0.6c0.5,0,0.9-0.2,1.2-0.6c0.4-0.5,0.5-1.1,0.5-1.7
				c0-0.6-0.1-1.2-0.5-1.7c-0.3-0.4-0.7-0.6-1.2-0.6c-0.5,0-0.9,0.2-1.2,0.6C155.9,70.2,155.7,70.8,155.8,71.4L155.8,71.4z"/>
			<path class="st3" d="M171.2,74.5v-5.3h-0.9v-0.8h0.9v-0.6c0-0.3,0-0.6,0.1-0.9c0.1-0.3,0.3-0.5,0.5-0.7c0.3-0.2,0.7-0.3,1.1-0.3
				c0.3,0,0.7,0,1,0.1l-0.1,0.9c-0.2,0-0.4,0-0.6,0c-0.2,0-0.5,0-0.7,0.2c-0.2,0.2-0.2,0.5-0.2,0.7v0.6h1.2v0.8h-1.2v5.3L171.2,74.5
				z"/>
			<path class="st3" d="M181.2,74.5v-0.9c-0.4,0.6-1.1,1-1.9,1c-0.3,0-0.7-0.1-1-0.2c-0.3-0.1-0.5-0.3-0.7-0.5
				c-0.2-0.2-0.3-0.5-0.3-0.8c-0.1-0.3-0.1-0.7-0.1-1v-3.7h1v3.4c0,0.4,0,0.7,0.1,1.1c0.1,0.3,0.2,0.5,0.4,0.6
				c0.2,0.2,0.5,0.2,0.8,0.2c0.3,0,0.6-0.1,0.9-0.2c0.3-0.1,0.5-0.4,0.6-0.6c0.1-0.4,0.2-0.8,0.2-1.2v-3.3h1v6.1H181.2z"/>
			<path class="st3" d="M189,73.6l0.1,0.9c-0.3,0.1-0.5,0.1-0.8,0.1c-0.3,0-0.6,0-0.9-0.2c-0.2-0.1-0.3-0.3-0.4-0.5
				c-0.1-0.4-0.2-0.8-0.1-1.2v-3.5h-0.8v-0.8h0.8v-1.5l1-0.6v2.1h1v0.8h-1v3.6c0,0.2,0,0.4,0,0.6c0,0.1,0.1,0.2,0.2,0.2
				c0.1,0.1,0.2,0.1,0.4,0.1C188.7,73.6,188.8,73.6,189,73.6z"/>
			<path class="st3" d="M197,74.5v-0.9c-0.4,0.6-1.1,1-1.9,1c-0.3,0-0.7-0.1-1-0.2c-0.3-0.1-0.5-0.3-0.7-0.5
				c-0.2-0.2-0.3-0.5-0.3-0.8c-0.1-0.3-0.1-0.7-0.1-1v-3.7h1v3.4c0,0.4,0,0.7,0.1,1.1c0.1,0.3,0.2,0.5,0.4,0.6
				c0.2,0.2,0.5,0.2,0.8,0.2c0.3,0,0.6-0.1,0.9-0.2c0.3-0.1,0.5-0.4,0.6-0.6c0.1-0.4,0.2-0.8,0.2-1.2v-3.3h1v6.1H197z"/>
			<path class="st3" d="M202.6,74.5v-6.1h0.9v0.9c0.2-0.3,0.4-0.6,0.7-0.8c0.2-0.1,0.4-0.2,0.7-0.2c0.4,0,0.7,0.1,1,0.3l-0.4,1
				c-0.2-0.1-0.5-0.2-0.8-0.2c-0.2,0-0.4,0.1-0.6,0.2c-0.2,0.1-0.3,0.3-0.4,0.6c-0.1,0.4-0.2,0.8-0.2,1.2v3.2L202.6,74.5z"/>
			<path class="st3" d="M213.7,72.6l1.1,0.1c-0.1,0.6-0.5,1.1-0.9,1.4c-1.2,0.8-2.8,0.7-3.9-0.3c-0.6-0.6-0.8-1.5-0.8-2.3
				c-0.1-0.9,0.2-1.7,0.8-2.4c0.5-0.5,1.2-0.9,2-0.8c0.8,0,1.5,0.3,2,0.8c0.5,0.6,0.8,1.5,0.8,2.3v0.3h-4.5c0,0.6,0.2,1.1,0.6,1.5
				c0.3,0.3,0.8,0.5,1.3,0.5c0.4,0,0.7-0.1,1-0.3C213.4,73.3,213.6,72.9,213.7,72.6z M210.3,70.9h3.4c0-0.4-0.1-0.8-0.4-1.1
				c-0.3-0.4-0.8-0.6-1.3-0.6c-0.4,0-0.9,0.2-1.2,0.5C210.5,70,210.3,70.4,210.3,70.9L210.3,70.9z"/>
			<path class="st3" d="M225.4,74.5v-6.1h0.9v0.8c0.2-0.3,0.5-0.5,0.8-0.7c0.3-0.2,0.7-0.3,1.1-0.3c0.4,0,0.8,0.1,1.1,0.3
				c0.3,0.2,0.5,0.5,0.6,0.8c0.4-0.7,1.1-1.1,1.9-1.1c0.5,0,1,0.1,1.4,0.5c0.4,0.4,0.5,1,0.5,1.5v4.2h-1v-3.8c0-0.3,0-0.6-0.1-0.9
				c-0.1-0.2-0.2-0.3-0.4-0.4c-0.2-0.1-0.4-0.2-0.6-0.2c-0.4,0-0.8,0.1-1.1,0.4c-0.3,0.4-0.5,0.9-0.5,1.4v3.5h-1v-4
				c0-0.4-0.1-0.7-0.3-1c-0.2-0.2-0.5-0.4-0.8-0.3c-0.3,0-0.6,0.1-0.8,0.2c-0.2,0.2-0.4,0.4-0.5,0.7c-0.1,0.4-0.2,0.8-0.2,1.3v3.2
				L225.4,74.5z"/>
			<path class="st3" d="M237.8,71.5c-0.1-0.9,0.3-1.8,0.9-2.5c0.5-0.5,1.2-0.7,1.9-0.7c0.8,0,1.5,0.3,2,0.8c0.6,0.6,0.8,1.4,0.8,2.3
				c0,0.6-0.1,1.3-0.4,1.8c-0.2,0.4-0.6,0.8-1,1c-0.4,0.3-0.9,0.4-1.5,0.4c-0.8,0-1.5-0.3-2.1-0.8C238,73.1,237.7,72.3,237.8,71.5z
				 M238.8,71.5c0,0.6,0.1,1.2,0.5,1.7c0.6,0.7,1.7,0.8,2.4,0.2c0.1-0.1,0.1-0.1,0.2-0.2c0.4-0.5,0.6-1.1,0.5-1.8
				c0-0.6-0.1-1.2-0.5-1.7c-0.6-0.7-1.7-0.8-2.4-0.2c-0.1,0-0.1,0.1-0.2,0.2C239,70.2,238.8,70.9,238.8,71.5z"/>
			<path class="st3" d="M248.7,74.5h-1v-8.4h1v3c0.4-0.5,1-0.8,1.7-0.8c0.4,0,0.7,0.1,1.1,0.2c0.3,0.1,0.6,0.4,0.8,0.6
				c0.2,0.3,0.4,0.6,0.5,1c0.1,0.4,0.2,0.8,0.2,1.2c0.1,0.9-0.2,1.7-0.8,2.4c-0.5,0.5-1.1,0.9-1.9,0.9c-0.7,0-1.3-0.3-1.7-0.9
				L248.7,74.5z M248.7,71.4c0,0.5,0.1,1.1,0.3,1.6c0.4,0.7,1.3,1,2,0.6c0.2-0.1,0.4-0.2,0.5-0.4c0.7-1.1,0.7-2.4,0-3.5
				c-0.3-0.4-0.7-0.6-1.1-0.6c-0.5,0-0.9,0.2-1.2,0.6C248.8,70.2,248.6,70.8,248.7,71.4L248.7,71.4z"/>
			<path class="st3" d="M257.3,67.3v-1.2h1v1.2H257.3z M257.3,74.5v-6.1h1v6.1H257.3z"/>
			<path class="st3" d="M262.9,74.5v-8.4h1v8.4H262.9z"/>
			<path class="st3" d="M268.5,67.3v-1.2h1v1.2H268.5z M268.5,74.5v-6.1h1v6.1H268.5z"/>
			<path class="st3" d="M276.4,73.6l0.1,0.9c-0.3,0.1-0.5,0.1-0.8,0.1c-0.3,0-0.6,0-0.9-0.2c-0.2-0.1-0.3-0.3-0.4-0.5
				c-0.1-0.4-0.2-0.8-0.1-1.2v-3.5h-0.8v-0.8h0.8v-1.5l1-0.6v2.1h1v0.8h-1v3.6c0,0.2,0,0.4,0,0.6c0,0.1,0.1,0.2,0.2,0.2
				c0.1,0.1,0.2,0.1,0.4,0.1C276.1,73.6,276.3,73.6,276.4,73.6z"/>
			<path class="st3" d="M280.4,76.8l-0.1-1c0.2,0.1,0.4,0.1,0.6,0.1c0.2,0,0.4,0,0.5-0.1c0.1-0.1,0.3-0.2,0.3-0.3
				c0.1-0.2,0.2-0.5,0.3-0.8c0-0.1,0.1-0.2,0.1-0.3l-2.3-6.1h1.1l1.3,3.6c0.2,0.5,0.3,0.9,0.4,1.4c0.1-0.5,0.3-0.9,0.4-1.4l1.3-3.5
				h1l-2.3,6.2c-0.2,0.5-0.4,0.9-0.6,1.4c-0.2,0.3-0.4,0.5-0.6,0.7c-0.3,0.2-0.5,0.2-0.9,0.2C280.8,77,280.6,76.9,280.4,76.8z"/>
			<path class="st3" d="M299.6,74.5v-0.8c-0.4,0.6-1,0.9-1.7,0.9c-0.5,0-0.9-0.1-1.3-0.4c-0.4-0.3-0.7-0.7-0.9-1.1
				c-0.2-0.5-0.3-1.1-0.3-1.7c0-0.6,0.1-1.1,0.3-1.7c0.2-0.5,0.5-0.9,0.9-1.1c0.4-0.3,0.9-0.4,1.4-0.4c0.7,0,1.3,0.3,1.7,0.8v-3h1
				v8.4L299.6,74.5z M296.3,71.5c0,0.6,0.1,1.2,0.5,1.7c0.3,0.4,0.7,0.6,1.2,0.6c0.4,0,0.9-0.2,1.1-0.6c0.3-0.5,0.5-1.1,0.5-1.7
				c0.1-0.6-0.1-1.3-0.5-1.8c-0.3-0.4-0.7-0.6-1.2-0.6c-0.5,0-0.9,0.2-1.1,0.6C296.4,70.3,296.3,70.9,296.3,71.5L296.3,71.5z"/>
			<path class="st3" d="M309.1,73.8c-0.3,0.3-0.7,0.5-1.1,0.7c-0.4,0.1-0.7,0.2-1.1,0.2c-0.6,0-1.1-0.1-1.5-0.5
				c-0.4-0.3-0.6-0.8-0.5-1.3c0-0.3,0.1-0.6,0.2-0.8c0.1-0.2,0.3-0.4,0.5-0.6c0.2-0.1,0.5-0.3,0.7-0.3c0.3-0.1,0.6-0.1,0.9-0.2
				c0.6-0.1,1.2-0.2,1.8-0.3c0-0.1,0-0.2,0-0.3c0-0.3-0.1-0.6-0.3-0.9c-0.3-0.3-0.7-0.4-1.2-0.3c-0.4,0-0.7,0.1-1.1,0.3
				c-0.3,0.2-0.4,0.6-0.5,0.9l-1-0.1c0.1-0.4,0.2-0.7,0.5-1c0.2-0.3,0.6-0.5,0.9-0.6c0.4-0.1,0.9-0.2,1.4-0.2c0.4,0,0.9,0,1.3,0.2
				c0.3,0.1,0.5,0.2,0.7,0.5c0.2,0.2,0.3,0.4,0.3,0.7c0,0.3,0.1,0.6,0,0.9V72c0,0.6,0,1.2,0.1,1.8c0,0.3,0.1,0.5,0.3,0.7h-1.1
				C309.2,74.3,309.2,74,309.1,73.8z M309.1,71.5c-0.5,0.2-1.1,0.3-1.7,0.4c-0.3,0-0.6,0.1-0.9,0.2c-0.2,0.1-0.3,0.2-0.4,0.3
				c-0.1,0.1-0.1,0.3-0.1,0.5c0,0.3,0.1,0.5,0.3,0.7c0.3,0.2,0.6,0.3,0.9,0.3c0.4,0,0.7-0.1,1.1-0.3c0.3-0.2,0.5-0.4,0.7-0.7
				c0.1-0.3,0.2-0.7,0.2-1L309.1,71.5z"/>
			<path class="st3" d="M317,73.6l0.1,0.9c-0.3,0.1-0.5,0.1-0.8,0.1c-0.3,0-0.6,0-0.9-0.2c-0.2-0.1-0.3-0.3-0.4-0.5
				c-0.1-0.4-0.1-0.8-0.1-1.2v-3.5h-0.8v-0.8h0.8v-1.5l1-0.6v2.1h1v0.8h-1v3.6c0,0.2,0,0.4,0,0.6c0,0.1,0.1,0.2,0.2,0.2
				c0.1,0.1,0.2,0.1,0.4,0.1C316.7,73.6,316.8,73.6,317,73.6z"/>
			<path class="st3" d="M325,73.8c-0.3,0.3-0.7,0.5-1.1,0.7c-0.4,0.1-0.8,0.2-1.1,0.2c-0.6,0-1.1-0.1-1.5-0.5
				c-0.4-0.3-0.6-0.8-0.5-1.3c0-0.3,0.1-0.6,0.2-0.8c0.1-0.2,0.3-0.4,0.5-0.6c0.2-0.1,0.5-0.3,0.7-0.3c0.3-0.1,0.6-0.1,0.9-0.2
				c0.6-0.1,1.2-0.2,1.8-0.3c0-0.1,0-0.2,0-0.3c0-0.3-0.1-0.6-0.3-0.9c-0.3-0.3-0.7-0.4-1.2-0.3c-0.4,0-0.7,0.1-1.1,0.3
				c-0.3,0.2-0.4,0.6-0.5,0.9l-1-0.1c0.1-0.4,0.2-0.7,0.5-1c0.2-0.3,0.6-0.5,0.9-0.6c0.4-0.1,0.9-0.2,1.4-0.2c0.4,0,0.9,0,1.3,0.2
				c0.3,0.1,0.5,0.2,0.7,0.5c0.2,0.2,0.3,0.4,0.3,0.7c0,0.3,0.1,0.6,0,0.9V72c0,0.6,0,1.2,0.1,1.8c0,0.3,0.1,0.5,0.3,0.7h-1.1
				C325.1,74.3,325,74,325,73.8z M324.9,71.5c-0.5,0.2-1.1,0.3-1.7,0.4c-0.3,0-0.6,0.1-0.9,0.2c-0.2,0.1-0.3,0.2-0.4,0.3
				c-0.1,0.1-0.1,0.3-0.1,0.5c0,0.3,0.1,0.5,0.3,0.7c0.3,0.2,0.6,0.3,0.9,0.3c0.4,0,0.7-0.1,1-0.3c0.3-0.2,0.5-0.4,0.7-0.7
				c0.1-0.3,0.2-0.7,0.2-1V71.5z"/>
			<path class="st3" d="M336.5,72.7l1-0.2c0,0.4,0.2,0.7,0.5,0.9c0.7,0.4,1.5,0.4,2.1,0c0.2-0.2,0.3-0.4,0.3-0.7
				c0-0.2-0.1-0.4-0.3-0.5c-0.3-0.2-0.7-0.3-1-0.3c-0.5-0.1-1.1-0.3-1.6-0.5c-0.3-0.1-0.5-0.3-0.7-0.6c-0.2-0.2-0.2-0.5-0.2-0.8
				c0-0.3,0.1-0.5,0.2-0.8c0.1-0.2,0.3-0.4,0.5-0.6c0.2-0.1,0.4-0.2,0.6-0.3c0.3-0.1,0.6-0.1,0.9-0.1c0.4,0,0.8,0.1,1.3,0.2
				c0.3,0.1,0.6,0.3,0.8,0.6c0.2,0.3,0.3,0.6,0.4,0.9l-1,0.1c0-0.3-0.2-0.5-0.4-0.7c-0.3-0.2-0.6-0.3-0.9-0.3c-0.4,0-0.7,0.1-1,0.2
				c-0.2,0.1-0.3,0.3-0.3,0.5c0,0.1,0,0.3,0.1,0.4c0.1,0.1,0.2,0.2,0.4,0.3c0.1,0,0.4,0.1,0.9,0.3c0.5,0.1,1,0.3,1.5,0.5
				c0.6,0.2,0.9,0.8,0.9,1.4c0,0.4-0.1,0.7-0.3,1c-0.2,0.3-0.5,0.6-0.9,0.7c-0.4,0.2-0.8,0.3-1.3,0.3c-0.6,0-1.3-0.1-1.8-0.5
				C336.8,73.8,336.5,73.3,336.5,72.7z"/>
			<path class="st3" d="M345.8,74.5v-8.4h1v3c0.4-0.5,1.1-0.8,1.8-0.8c0.4,0,0.8,0.1,1.2,0.3c0.3,0.2,0.6,0.4,0.7,0.7
				c0.2,0.4,0.2,0.9,0.2,1.3v3.8h-1v-3.8c0-0.4-0.1-0.8-0.3-1.1c-0.3-0.2-0.6-0.4-0.9-0.3c-0.3,0-0.6,0.1-0.9,0.2
				c-0.3,0.1-0.5,0.4-0.6,0.6c-0.1,0.4-0.2,0.7-0.2,1.1v3.3H345.8z"/>
			<path class="st3" d="M359.3,73.8c-0.3,0.3-0.7,0.5-1.1,0.7c-0.4,0.1-0.8,0.2-1.1,0.2c-0.6,0-1.1-0.1-1.5-0.5
				c-0.4-0.3-0.6-0.8-0.5-1.3c0-0.3,0.1-0.6,0.2-0.8c0.1-0.2,0.3-0.4,0.5-0.6c0.2-0.1,0.5-0.3,0.7-0.3c0.3-0.1,0.6-0.1,0.9-0.2
				c0.6-0.1,1.2-0.2,1.8-0.3c0-0.1,0-0.2,0-0.3c0-0.3-0.1-0.6-0.3-0.9c-0.3-0.3-0.8-0.4-1.2-0.3c-0.4,0-0.7,0.1-1.1,0.3
				c-0.3,0.2-0.4,0.6-0.5,0.9l-1-0.1c0.1-0.4,0.2-0.7,0.5-1c0.2-0.3,0.6-0.5,0.9-0.6c0.4-0.1,0.9-0.2,1.4-0.2c0.4,0,0.9,0,1.3,0.2
				c0.3,0.1,0.5,0.2,0.7,0.5c0.2,0.2,0.3,0.4,0.3,0.7c0,0.3,0,0.6,0,0.9V72c0,0.6,0,1.2,0.1,1.8c0,0.3,0.1,0.5,0.3,0.7h-1.1
				C359.3,74.3,359.3,74,359.3,73.8z M359.2,71.5c-0.5,0.2-1.1,0.3-1.7,0.4c-0.3,0-0.6,0.1-0.9,0.2c-0.3,0.1-0.6,0.5-0.5,0.8
				c0,0.3,0.1,0.5,0.3,0.7c0.3,0.2,0.6,0.3,0.9,0.3c0.4,0,0.7-0.1,1.1-0.3c0.3-0.2,0.5-0.4,0.7-0.7c0.1-0.3,0.2-0.7,0.2-1V71.5z"/>
			<path class="st3" d="M364.8,74.5v-6.1h0.9v0.9c0.2-0.3,0.4-0.6,0.6-0.8c0.2-0.1,0.4-0.2,0.7-0.2c0.4,0,0.7,0.1,1.1,0.3l-0.4,1
				c-0.2-0.1-0.5-0.2-0.8-0.2c-0.2,0-0.4,0.1-0.6,0.2c-0.2,0.1-0.3,0.3-0.4,0.6c-0.1,0.4-0.2,0.8-0.2,1.2v3.2L364.8,74.5z"/>
			<path class="st3" d="M371.8,67.3v-1.2h1v1.2H371.8z M371.8,74.5v-6.1h1v6.1H371.8z"/>
			<path class="st3" d="M377.4,74.5v-6.1h0.9v0.9c0.4-0.7,1.2-1,1.9-1c0.3,0,0.7,0.1,1,0.2c0.3,0.1,0.5,0.3,0.7,0.5
				c0.2,0.2,0.3,0.5,0.3,0.8c0,0.3,0.1,0.7,0.1,1v3.7h-1v-3.7c0-0.3,0-0.6-0.1-0.9c-0.1-0.2-0.2-0.4-0.4-0.5
				c-0.2-0.1-0.5-0.2-0.7-0.2c-0.4,0-0.8,0.1-1.1,0.4c-0.4,0.4-0.5,1-0.5,1.6v3.3L377.4,74.5z"/>
			<path class="st3" d="M386.8,75l1,0.2c0,0.3,0.1,0.5,0.3,0.7c0.3,0.2,0.7,0.3,1,0.3c0.4,0,0.8-0.1,1.1-0.3
				c0.3-0.2,0.5-0.5,0.5-0.8c0.1-0.4,0.1-0.9,0.1-1.3c-0.4,0.5-1,0.8-1.7,0.8c-0.8,0-1.5-0.3-1.9-0.9c-0.5-0.6-0.7-1.4-0.7-2.2
				c0-0.5,0.1-1.1,0.3-1.6c0.2-0.5,0.5-0.9,0.9-1.1c0.4-0.3,0.9-0.4,1.4-0.4c0.7,0,1.3,0.3,1.8,0.9v-0.7h1v5.3c0,0.7-0.1,1.4-0.3,2
				c-0.2,0.4-0.5,0.7-0.9,0.9c-0.5,0.2-1,0.4-1.5,0.3c-0.6,0-1.2-0.1-1.8-0.5C387,76.1,386.7,75.6,386.8,75z M387.6,71.4
				c0,0.6,0.1,1.2,0.5,1.7c0.3,0.4,0.7,0.6,1.2,0.6c0.5,0,0.9-0.2,1.2-0.6c0.4-0.5,0.6-1.1,0.5-1.7c0-0.6-0.1-1.2-0.5-1.7
				c-0.3-0.4-0.7-0.6-1.2-0.6c-0.5,0-0.9,0.2-1.2,0.6C387.8,70.2,387.6,70.8,387.6,71.4L387.6,71.4z"/>
			<path class="st3" d="M402.4,72.7l1-0.2c0,0.4,0.2,0.7,0.5,0.9c0.3,0.2,0.7,0.4,1.1,0.3c0.4,0,0.7-0.1,1-0.3
				c0.2-0.2,0.3-0.4,0.3-0.7c0-0.2-0.1-0.4-0.3-0.5c-0.3-0.2-0.7-0.3-1-0.3c-0.5-0.1-1.1-0.3-1.6-0.5c-0.3-0.1-0.5-0.3-0.7-0.6
				c-0.2-0.2-0.2-0.5-0.2-0.8c0-0.3,0.1-0.5,0.2-0.8c0.1-0.2,0.3-0.4,0.5-0.6c0.2-0.1,0.4-0.2,0.7-0.3c0.3-0.1,0.6-0.1,0.9-0.1
				c0.4,0,0.8,0.1,1.3,0.2c0.3,0.1,0.6,0.3,0.8,0.6c0.2,0.3,0.3,0.6,0.4,0.9l-1,0.1c0-0.3-0.2-0.5-0.4-0.7c-0.3-0.2-0.6-0.3-0.9-0.3
				c-0.4,0-0.7,0.1-1,0.2c-0.2,0.1-0.3,0.3-0.3,0.5c0,0.1,0,0.3,0.1,0.4c0.1,0.1,0.2,0.2,0.4,0.3c0.1,0,0.4,0.1,0.9,0.3
				c0.5,0.1,1,0.3,1.5,0.5c0.3,0.1,0.5,0.3,0.7,0.5c0.2,0.3,0.3,0.6,0.3,0.9c0,0.4-0.1,0.7-0.3,1c-0.2,0.3-0.5,0.6-0.9,0.7
				c-0.4,0.2-0.8,0.3-1.3,0.3c-0.6,0-1.3-0.1-1.8-0.5C402.7,73.8,402.4,73.3,402.4,72.7z"/>
			<path class="st3" d="M411.3,71.5c-0.1-0.9,0.3-1.8,0.9-2.5c0.5-0.5,1.2-0.7,1.9-0.7c0.8,0,1.5,0.3,2,0.8c0.6,0.6,0.8,1.4,0.8,2.3
				c0,0.6-0.1,1.3-0.4,1.8c-0.2,0.4-0.6,0.8-1,1c-0.4,0.3-1,0.4-1.5,0.4c-0.8,0-1.5-0.3-2.1-0.8C411.6,73.2,411.3,72.3,411.3,71.5z
				 M412.4,71.5c0,0.6,0.1,1.2,0.5,1.7c0.6,0.7,1.7,0.8,2.4,0.2c0.1-0.1,0.1-0.1,0.2-0.2c0.4-0.5,0.5-1.1,0.5-1.8
				c0-0.6-0.1-1.2-0.5-1.7c-0.3-0.4-0.8-0.6-1.3-0.6c-0.5,0-1,0.2-1.3,0.6C412.5,70.2,412.3,70.9,412.4,71.5z"/>
			<path class="st3" d="M421.2,74.5v-8.4h1v8.4H421.2z"/>
			<path class="st3" d="M430.9,74.5v-0.9c-0.4,0.6-1.1,1-1.9,1c-0.3,0-0.7-0.1-1-0.2c-0.3-0.1-0.5-0.3-0.7-0.5
				c-0.2-0.2-0.3-0.5-0.3-0.8c-0.1-0.3-0.1-0.7-0.1-1v-3.7h1v3.4c0,0.4,0,0.7,0.1,1.1c0.1,0.3,0.2,0.5,0.4,0.6
				c0.2,0.2,0.5,0.2,0.8,0.2c0.3,0,0.6-0.1,0.9-0.2c0.3-0.1,0.5-0.4,0.6-0.6c0.1-0.4,0.2-0.8,0.2-1.2v-3.3h1v6.1H430.9z"/>
			<path class="st3" d="M438.7,73.6l0.1,0.9c-0.3,0.1-0.5,0.1-0.8,0.1c-0.3,0-0.6,0-0.9-0.2c-0.2-0.1-0.3-0.3-0.4-0.5
				c-0.1-0.4-0.2-0.8-0.1-1.2v-3.5h-0.8v-0.8h0.8v-1.5l1-0.6v2.1h1v0.8h-1v3.6c0,0.2,0,0.4,0.1,0.6c0,0.1,0.1,0.2,0.2,0.2
				c0.1,0.1,0.2,0.1,0.4,0.1C438.4,73.6,438.5,73.6,438.7,73.6z"/>
			<path class="st3" d="M442.7,67.3v-1.2h1v1.2H442.7z M442.7,74.5v-6.1h1v6.1H442.7z"/>
			<path class="st3" d="M448,71.5c-0.1-0.9,0.3-1.9,0.9-2.5c0.5-0.5,1.2-0.7,1.9-0.7c0.8,0,1.5,0.3,2,0.8c0.6,0.6,0.8,1.4,0.8,2.3
				c0,0.6-0.1,1.3-0.4,1.8c-0.2,0.4-0.6,0.8-1,1c-0.4,0.3-1,0.4-1.5,0.4c-0.8,0-1.5-0.3-2.1-0.8C448.2,73.2,448,72.3,448,71.5z
				 M449.1,71.5c0,0.6,0.1,1.2,0.5,1.7c0.6,0.7,1.7,0.8,2.4,0.2c0.1-0.1,0.1-0.1,0.2-0.2c0.4-0.5,0.6-1.1,0.5-1.8
				c0-0.6-0.1-1.2-0.5-1.7c-0.3-0.4-0.8-0.6-1.3-0.6c-0.5,0-1,0.2-1.3,0.6C449.2,70.2,449,70.8,449.1,71.5L449.1,71.5z"/>
			<path class="st3" d="M457.9,74.5v-6.1h0.9v0.9c0.4-0.7,1.2-1,1.9-1c0.3,0,0.7,0.1,1,0.2c0.3,0.1,0.5,0.3,0.7,0.5
				c0.2,0.2,0.3,0.5,0.3,0.8c0,0.3,0.1,0.7,0.1,1v3.7h-1v-3.7c0-0.3,0-0.6-0.1-0.9c-0.1-0.2-0.2-0.4-0.4-0.5
				c-0.2-0.1-0.5-0.2-0.7-0.2c-0.4,0-0.8,0.1-1.1,0.4c-0.4,0.4-0.5,1-0.5,1.6v3.3L457.9,74.5z"/>
			<path class="st3" d="M467,72.7l1-0.2c0,0.4,0.2,0.7,0.5,0.9c0.7,0.4,1.5,0.4,2.1,0c0.2-0.2,0.3-0.4,0.3-0.7
				c0-0.2-0.1-0.4-0.3-0.5c-0.3-0.2-0.7-0.3-1-0.3c-0.5-0.1-1.1-0.3-1.6-0.5c-0.3-0.1-0.5-0.3-0.7-0.6c-0.2-0.2-0.2-0.5-0.2-0.8
				c0-0.5,0.3-1,0.7-1.3c0.2-0.1,0.4-0.2,0.7-0.3c0.3-0.1,0.6-0.1,0.9-0.1c0.4,0,0.8,0.1,1.3,0.2c0.3,0.1,0.6,0.3,0.8,0.6
				c0.2,0.3,0.3,0.6,0.4,0.9l-1,0.1c0-0.3-0.2-0.5-0.4-0.7c-0.3-0.2-0.6-0.3-0.9-0.3c-0.4,0-0.7,0.1-1,0.2c-0.2,0.1-0.3,0.3-0.3,0.5
				c0,0.1,0,0.3,0.1,0.4c0.1,0.1,0.2,0.2,0.4,0.3c0.1,0,0.4,0.1,0.9,0.3c0.5,0.1,1,0.3,1.5,0.5c0.3,0.1,0.5,0.3,0.7,0.5
				c0.2,0.3,0.3,0.6,0.3,0.9c0,0.4-0.1,0.7-0.3,1c-0.2,0.3-0.5,0.6-0.9,0.7c-0.4,0.2-0.8,0.3-1.3,0.3c-0.6,0-1.3-0.1-1.8-0.5
				C467.4,73.8,467.1,73.3,467,72.7z"/>
			<path class="st3" d="M482.6,67.3v-1.2h1v1.2H482.6z M482.6,74.5v-6.1h1v6.1H482.6z"/>
			<path class="st3" d="M488.3,74.5v-6.1h0.9v0.9c0.4-0.7,1.2-1,1.9-1c0.3,0,0.7,0.1,1,0.2c0.3,0.1,0.5,0.3,0.7,0.5
				c0.2,0.2,0.3,0.5,0.3,0.8c0,0.3,0.1,0.7,0.1,1v3.7h-1v-3.7c0-0.3,0-0.6-0.1-0.9c-0.1-0.2-0.2-0.4-0.4-0.5
				c-0.2-0.1-0.5-0.2-0.7-0.2c-0.4,0-0.8,0.1-1.1,0.4c-0.4,0.4-0.5,1-0.5,1.6v3.3L488.3,74.5z"/>
			<path class="st3" d="M506.3,73.6l0.2,0.9c-0.3,0.1-0.5,0.1-0.8,0.1c-0.3,0-0.6,0-0.9-0.2c-0.2-0.1-0.3-0.3-0.4-0.5
				c-0.1-0.4-0.1-0.8-0.1-1.2v-3.5h-0.8v-0.8h0.8v-1.5l1-0.6v2.1h1v0.8h-1v3.6c0,0.2,0,0.4,0,0.6c0,0.1,0.1,0.2,0.2,0.2
				c0.1,0.1,0.2,0.1,0.3,0.1C506,73.6,506.2,73.6,506.3,73.6z"/>
			<path class="st3" d="M510.4,74.5v-8.4h1v3c0.4-0.5,1.1-0.8,1.8-0.8c0.4,0,0.8,0.1,1.2,0.3c0.3,0.2,0.6,0.4,0.7,0.7
				c0.2,0.4,0.2,0.9,0.2,1.3v3.8h-1v-3.8c0-0.4-0.1-0.8-0.3-1.1c-0.3-0.3-0.6-0.4-1-0.3c-0.3,0-0.6,0.1-0.9,0.2
				c-0.3,0.1-0.5,0.4-0.6,0.6c-0.1,0.4-0.2,0.7-0.2,1.1v3.3H510.4z"/>
			<path class="st3" d="M524.1,72.6l1.1,0.1c-0.1,0.6-0.5,1.1-0.9,1.4c-0.5,0.4-1.1,0.5-1.7,0.5c-0.8,0-1.6-0.3-2.1-0.8
				c-0.6-0.6-0.8-1.5-0.8-2.3c-0.1-0.9,0.2-1.7,0.8-2.4c0.5-0.5,1.2-0.9,2-0.8c0.8,0,1.5,0.3,2,0.8c0.5,0.6,0.8,1.5,0.8,2.3v0.3
				h-4.5c0,0.6,0.2,1.1,0.6,1.5c0.3,0.3,0.8,0.5,1.3,0.5c0.4,0,0.7-0.1,1-0.3C523.8,73.3,524,72.9,524.1,72.6z M520.7,70.9h3.4
				c0-0.4-0.1-0.8-0.4-1.1c-0.3-0.4-0.8-0.6-1.3-0.6c-0.4,0-0.9,0.2-1.2,0.5C520.9,70,520.7,70.4,520.7,70.9z"/>
			<path class="st3" d="M539.7,72.3l1,0.1c-0.1,0.6-0.4,1.2-0.8,1.6c-0.5,0.4-1.1,0.6-1.7,0.6c-0.8,0-1.5-0.3-2-0.8
				c-0.5-0.7-0.8-1.5-0.8-2.3c0-0.6,0.1-1.2,0.3-1.7c0.2-0.5,0.6-0.9,1-1.1c0.4-0.2,0.9-0.4,1.5-0.4c0.6,0,1.2,0.1,1.6,0.5
				c0.4,0.4,0.7,0.9,0.8,1.4l-1,0.2c-0.1-0.4-0.2-0.7-0.5-0.9c-0.2-0.2-0.6-0.3-0.9-0.3c-0.5,0-0.9,0.2-1.3,0.6
				c-0.4,0.5-0.5,1.1-0.5,1.8c-0.1,0.6,0.1,1.3,0.5,1.8c0.3,0.4,0.7,0.6,1.2,0.6c0.4,0,0.7-0.1,1-0.4
				C539.5,73.1,539.7,72.7,539.7,72.3z"/>
			<path class="st3" d="M544.6,74.5v-8.4h1v8.4H544.6z"/>
			<path class="st3" d="M549.9,71.5c-0.1-0.9,0.3-1.8,0.9-2.5c0.5-0.5,1.2-0.7,1.9-0.7c0.8,0,1.5,0.3,2,0.8c0.6,0.6,0.8,1.4,0.8,2.3
				c0,0.6-0.1,1.3-0.3,1.8c-0.2,0.4-0.6,0.8-1,1c-0.4,0.3-1,0.4-1.5,0.4c-0.8,0-1.5-0.3-2.1-0.8C550.1,73.1,549.9,72.3,549.9,71.5z
				 M551,71.5c0,0.6,0.1,1.2,0.5,1.7c0.3,0.4,0.8,0.6,1.3,0.6c0.5,0,1-0.2,1.3-0.6c0.4-0.5,0.6-1.1,0.5-1.8c0-0.6-0.1-1.2-0.5-1.7
				c-0.3-0.4-0.8-0.6-1.3-0.6c-0.5,0-1,0.2-1.3,0.6C551.1,70.2,550.9,70.9,551,71.5L551,71.5z"/>
			<path class="st3" d="M563.8,74.5v-0.9c-0.4,0.6-1.2,1-1.9,1c-0.3,0-0.7-0.1-1-0.2c-0.3-0.1-0.5-0.3-0.7-0.5
				c-0.2-0.2-0.3-0.5-0.3-0.8c-0.1-0.3-0.1-0.7-0.1-1v-3.7h1v3.4c0,0.4,0,0.7,0.1,1.1c0.1,0.3,0.2,0.5,0.4,0.6
				c0.2,0.2,0.5,0.2,0.8,0.2c0.3,0,0.6-0.1,0.9-0.2c0.3-0.1,0.5-0.4,0.6-0.6c0.1-0.4,0.2-0.8,0.2-1.2v-3.3h1v6.1H563.8z"/>
			<path class="st3" d="M573.3,74.5v-0.8c-0.4,0.6-1,0.9-1.7,0.9c-0.5,0-0.9-0.1-1.3-0.4c-0.4-0.3-0.7-0.7-1-1.1
				c-0.2-0.5-0.3-1.1-0.3-1.7c0-0.6,0.1-1.1,0.3-1.7c0.2-0.5,0.5-0.9,0.9-1.1c0.4-0.3,0.9-0.4,1.3-0.4c0.3,0,0.7,0.1,1,0.2
				c0.3,0.1,0.5,0.3,0.7,0.6v-3h1v8.4L573.3,74.5z M570.1,71.5c-0.1,0.6,0.1,1.2,0.5,1.7c0.3,0.4,0.7,0.6,1.2,0.6
				c0.4,0,0.9-0.2,1.1-0.6c0.4-0.5,0.5-1.1,0.5-1.7c0.1-0.6-0.1-1.3-0.5-1.8c-0.3-0.4-0.7-0.6-1.2-0.6c-0.4,0-0.9,0.2-1.1,0.6
				C570.2,70.3,570,70.9,570.1,71.5L570.1,71.5z"/>
		</g>
	</g>
</g>
</svg>
